<svg width="50" height="50" viewBox="0 0 50 50" fill="none" xmlns="http://www.w3.org/2000/svg">
<g clip-path="url(#clip0_9_12)">
<path d="M23.0055 31.0653C20.7319 30.6568 18.737 29.753 17.0207 28.354C15.3274 26.9592 14.0873 25.2191 13.3004 23.1337C12.5406 21.0295 12.3733 18.7946 12.7983 16.4292C13.2234 14.0637 14.1564 12.0385 15.5971 10.3534C17.0609 8.67249 18.8292 7.47302 20.9022 6.75503C22.9982 6.04117 25.183 5.88853 27.4566 6.29711C29.7302 6.70569 31.7136 7.6074 33.4069 9.00223C35.1232 10.4012 36.3518 12.1392 37.0928 14.2164C37.8567 16.2976 38.0261 18.521 37.601 20.8864C37.1759 23.2519 36.241 25.2886 34.7961 26.9966C33.3553 28.6817 31.5984 29.8832 29.5254 30.6012C27.4524 31.3192 25.2791 31.4739 23.0055 31.0653ZM23.9713 25.6914C25.9003 26.0381 27.5546 25.6716 28.934 24.5919C30.3363 23.5163 31.2274 21.9221 31.6071 19.8093C31.9909 17.6735 31.7107 15.8688 30.7664 14.3952C29.8492 12.9028 28.4261 11.9832 26.497 11.6366C24.545 11.2858 22.8698 11.6367 21.4716 12.6893C20.0963 13.746 19.2147 15.3538 18.8268 17.5125C18.443 19.6483 18.7096 21.4624 19.6268 22.9549C20.571 24.4284 22.0192 25.3406 23.9713 25.6914Z" fill="url(#paint0_linear_9_12)"/>
<g clip-path="url(#clip1_9_12)">
<path d="M28.7311 38.0269L25.0542 37.2941L28.9289 25.9512L33.7089 26.9038L30.6354 34.368L34.3123 35.1008L27.1284 45.7842L28.7311 38.0269Z" fill="url(#paint1_linear_9_12)" stroke="url(#paint2_linear_9_12)" stroke-width="2" stroke-linejoin="round"/>
</g>
</g>
<defs>
<linearGradient id="paint0_linear_9_12" x1="22.9945" y1="12.5261" x2="27.797" y2="46.8203" gradientUnits="userSpaceOnUse">
<stop stop-color="#C393FF"/>
<stop offset="1" stop-color="#7F46C9"/>
</linearGradient>
<linearGradient id="paint1_linear_9_12" x1="27.5047" y1="46.8453" x2="25.5871" y2="11.7714" gradientUnits="userSpaceOnUse">
<stop stop-color="#7F46C9"/>
<stop offset="1" stop-color="#C393FF"/>
</linearGradient>
<linearGradient id="paint2_linear_9_12" x1="27.5925" y1="46.354" x2="24.5157" y2="11.6998" gradientUnits="userSpaceOnUse">
<stop stop-color="#7F46C9"/>
<stop offset="1" stop-color="#C393FF"/>
</linearGradient>
<clipPath id="clip0_9_12">
<rect width="50" height="50" fill="white"/>
</clipPath>
<clipPath id="clip1_9_12">
<rect width="17.9837" height="23.8633" fill="white" transform="matrix(0.981387 0.195586 -0.109031 0.993645 22.1597 22.583)"/>
</clipPath>
</defs>
</svg>
